<svg width="800" height="600" viewBox="0 0 800 600" fill="none" xmlns="http://www.w3.org/2000/svg">
  <rect width="800" height="600" fill="transparent"/>
  
  <!-- Lightbulb -->
  <g transform="translate(350 150)">
    <!-- Glass -->
    <path d="M50 220C22.3858 220 0 197.614 0 170C0 148.5 10 130 30 115C15 80 40 20 100 20C160 20 185 80 170 115C190 130 200 148.5 200 170C200 197.614 177.614 220 150 220H50Z" fill="#D97706" fill-opacity="0.1" stroke="#D97706" stroke-width="4"/>
    
    <!-- Brain Filament -->
    <path d="M70 120C70 120 80 100 100 100C120 100 130 120 130 120M70 140C70 140 80 160 100 160C120 160 130 140 130 140M100 100V160M85 110H115M85 150H115" stroke="#D97706" stroke-width="6" stroke-linecap="round"/>
    
    <!-- Base -->
    <rect x="70" y="220" width="60" height="40" rx="4" fill="#1F7A7A"/>
    <rect x="75" y="230" width="50" height="4" rx="2" fill="#3AA8A8"/>
    <rect x="75" y="240" width="50" height="4" rx="2" fill="#3AA8A8"/>
    <rect x="75" y="250" width="50" height="4" rx="2" fill="#3AA8A8"/>
  </g>
  
  <!-- Data Nodes & Connections -->
  <g transform="translate(100 100)">
    <circle cx="50" cy="50" r="10" fill="#3AA8A8"/>
    <circle cx="600" cy="50" r="12" fill="#5CBDBD"/>
    <circle cx="50" cy="400" r="8" fill="#FBBF24"/>
    <circle cx="600" cy="400" r="10" fill="#1F7A7A"/>
    
    <path d="M50 50L250 150M600 50L450 150M50 400L250 300M600 400L450 300" stroke="#B3E3E3" stroke-width="2" stroke-dasharray="8 8"/>
  </g>
  
  <!-- Sparkles -->
  <path d="M450 50L455 65L470 70L455 75L450 90L445 75L430 70L445 65L450 50Z" fill="#FBBF24"/>
</svg>