<?xml version="1.0" encoding="UTF-8"?>
<svg id="Layer_1" data-name="Layer 1" xmlns="http://www.w3.org/2000/svg" xmlns:xlink="http://www.w3.org/1999/xlink" viewBox="0 0 2048 2048">
  <defs>
    <style>
      .cls-1 {
        fill: #D97706;
      }

      .cls-2 {
        fill: url(#radial-gradient);
      }
    </style>
    <radialGradient id="radial-gradient" cx="1033.34" cy="1392.78" fx="1033.34" fy="1392.78" r="822.79" gradientUnits="userSpaceOnUse">
      <stop offset="0" stop-color="#b8ebda"/>
      <stop offset=".16" stop-color="#8ccfc2"/>
      <stop offset=".36" stop-color="#5fb2ab"/>
      <stop offset=".54" stop-color="#3c9b98"/>
      <stop offset=".72" stop-color="#228b8a"/>
      <stop offset=".87" stop-color="#138182"/>
      <stop offset="1" stop-color="#0e7e80"/>
    </radialGradient>
  </defs>
  <path class="cls-2" d="M1630.46,1664.11s-388.23-36.57-606.48-27.24c-218.22-9.33-606.45,27.24-606.45,27.24,60.69-10.89,238.08-47.46,334.55-153.26,96.47-105.81,136.92-290.97,136.92-479.25s-86.76-261.8-86.76-261.8c-15.15,63.01-102.29,97.62-102.29,97.62,13.62,27.24,21.78,70.82,35.4,106.6,13.62,35.78,50.95,29.56,75.08,29.56s29.94,28.41,30.73,37.74c.77,9.33,6.99,33.08-17.11,43.58-24.12,10.48-56.03.77-86.76-15.17-30.73-15.96-73.9-50.19-106.6-89.1-32.67-38.89-51.33-63.78-59.9-88.29-8.54-24.51,3.9-43.58,9.74-52.92,5.81-9.33,12.83-29.17,29.94-58.35,17.11-29.17,76.25-77.81,76.25-77.81l2.12-10.12c9.95-47.43,51.05-81.91,99.51-83.42,24.33-.76,46.54-1.45,54.37-1.76,20.22-.79,61.08-10.12,93.74-28,32.69-17.9,37.36-36.57,36.19-47.08-1.17-10.51-25.3-34.25-25.3-48.25s8.57-28.38,8.57-28.38l1.38-25.02c1.43-25.5,22.03-45.72,47.56-46.64l19.13-.71,19.13.71c25.53.92,46.16,21.14,47.56,46.64l1.4,25.02s8.54,14.38,8.54,28.38-24.1,37.74-25.27,48.25c-1.17,10.51,3.49,29.17,36.19,47.08,32.67,17.88,73.52,27.21,93.74,28,7.8.31,30.04.99,54.37,1.76,48.45,1.5,89.56,35.98,99.51,83.42l2.12,10.12s59.11,48.63,76.25,77.81c17.11,29.17,24.1,49.01,29.94,58.35,5.84,9.33,18.28,28.41,9.74,52.92-8.57,24.51-27.24,49.4-59.93,88.29-32.67,38.92-75.84,73.14-106.57,89.1-30.73,15.94-62.63,25.65-86.76,15.17-24.12-10.51-17.9-34.25-17.11-43.58.77-9.33,6.6-37.74,30.73-37.74s61.46,6.22,75.08-29.56c13.62-35.78,21.78-79.36,35.4-106.6,0,0-87.14-34.61-102.31-97.62,0,0-86.73,73.52-86.73,261.8s40.45,373.44,136.92,479.25c96.47,105.81,273.86,142.37,334.55,153.26Z"/>
  <g>
    <circle class="cls-1" cx="1024.01" cy="1209.76" r="45.12" transform="translate(-342.71 407.15) rotate(-19.33)"/>
    <path class="cls-1" d="M1121.9,1609.39c-9.36-16.86-16.09-69.24-24.2-106.83-8.13-37.61-20.15-77.55-20.15-77.55,0,0,45.11-38.63,56.26-47.99,11.17-9.33,27.77-28.26,26.22-38.64-1.58-10.38-38.66-45.11-54.98-57.84-16.35-12.7-40.98-19.97-46.95-23.08-5.97-3.11-24.89-15.81-24.89-15.81h-18.41s-18.92,12.7-24.89,15.81c-5.97,3.11-30.6,10.38-46.95,23.08-16.32,12.73-53.4,47.46-54.98,57.84-1.56,10.38,15.05,29.3,26.22,38.64,11.14,9.36,56.26,47.99,56.26,47.99,0,0-12.01,39.94-20.15,77.55-8.11,37.59-14.84,89.97-24.2,106.83-9.33,16.86-29.56,36.06-29.56,36.06h63.8s-2.6-14.26,1.56-24.89c4.16-10.63,21.01-42.28,26.7-68.22,5.69-25.94,35.4-94.66,35.4-94.66,0,0,29.68,68.73,35.4,94.66,5.69,25.93,22.54,57.58,26.7,68.22,4.16,10.63,1.56,24.89,1.56,24.89h63.8s-20.22-19.2-29.56-36.06ZM958.54,1381.43c-7.11-8.26-17.49-22.82-23.89-31.95-3.03-4.34-1.5-10.33,3.21-12.73l31.83-15.99s5.71,65.62,5.97,66.89c.26,1.3-6.22,6.5-17.11-6.22ZM1072.35,1387.65c.25-1.28,5.97-66.89,5.97-66.89l31.83,15.99c4.72,2.4,6.25,8.39,3.21,12.73-6.4,9.13-16.78,23.69-23.89,31.95-10.89,12.73-17.37,7.52-17.11,6.22Z"/>
  </g>
</svg>
