<svg width="800" height="600" viewBox="0 0 800 600" fill="none" xmlns="http://www.w3.org/2000/svg">
  <rect width="800" height="600" fill="transparent"/>
  
  <!-- Circuitry Network -->
  <path d="M100 300H200L250 200H350" stroke="#B3E3E3" stroke-width="4" stroke-dasharray="10 10"/>
  <path d="M100 300L250 400H350" stroke="#B3E3E3" stroke-width="4" stroke-dasharray="10 10"/>
  <path d="M700 300H600L550 200H450" stroke="#B3E3E3" stroke-width="4" stroke-dasharray="10 10"/>
  <path d="M700 300L550 400H450" stroke="#B3E3E3" stroke-width="4" stroke-dasharray="10 10"/>
  
  <!-- Central AI Brain/Chip -->
  <rect x="340" y="240" width="120" height="120" rx="16" fill="#1F7A7A"/>
  <rect x="360" y="260" width="80" height="80" rx="8" fill="#3AA8A8"/>
  <path d="M380 300L395 315L420 290" stroke="white" stroke-width="8" stroke-linecap="round" stroke-linejoin="round"/>
  
  <!-- Glowing Nodes -->
  <circle cx="200" cy="300" r="12" fill="#F87A09"/>
  <circle cx="250" cy="200" r="10" fill="#F87A09" fill-opacity="0.6"/>
  <circle cx="250" cy="400" r="10" fill="#F87A09" fill-opacity="0.6"/>
  
  <circle cx="600" cy="300" r="12" fill="#F87A09"/>
  <circle cx="550" cy="200" r="10" fill="#F87A09" fill-opacity="0.6"/>
  <circle cx="550" cy="400" r="10" fill="#F87A09" fill-opacity="0.6"/>
  
  <!-- Robot Arm Base -->
  <rect x="360" y="450" width="80" height="40" rx="4" fill="#1B6B6B"/>
  <rect x="390" y="360" width="20" height="100" fill="#5CBDBD"/>
  
  <!-- Sparkles -->
  <path d="M450 150L455 165L470 170L455 175L450 190L445 175L430 170L445 165L450 150Z" fill="#F9953B"/>
  <path d="M150 450L155 465L170 470L155 475L150 490L145 475L130 470L145 465L150 450Z" fill="#F9953B"/>
</svg>