<svg width="800" height="600" viewBox="0 0 800 600" fill="none" xmlns="http://www.w3.org/2000/svg">
  <rect width="800" height="600" fill="transparent"/>
  
  <!-- Main Database Container -->
  <rect x="250" y="150" width="300" height="350" rx="20" fill="#F5F5F5" stroke="#D4DBE5" stroke-width="2"/>
  
  <!-- Data Layers -->
  <rect x="280" y="180" width="240" height="60" rx="10" fill="#FFFFFF" stroke="#B3E3E3" stroke-width="2"/>
  <rect x="280" y="260" width="240" height="60" rx="10" fill="#FFFFFF" stroke="#B3E3E3" stroke-width="2"/>
  <rect x="280" y="340" width="240" height="60" rx="10" fill="#FFFFFF" stroke="#B3E3E3" stroke-width="2"/>
  
  <!-- Profile Icons -->
  <circle cx="315" cy="210" r="15" fill="#5CBDBD"/>
  <circle cx="315" cy="290" r="15" fill="#5CBDBD"/>
  <circle cx="315" cy="370" r="15" fill="#5CBDBD"/>
  
  <!-- Text lines -->
  <rect x="345" y="200" width="120" height="6" rx="3" fill="#D4DBE5"/>
  <rect x="345" y="215" width="80" height="6" rx="3" fill="#D4DBE5"/>
  
  <rect x="345" y="280" width="120" height="6" rx="3" fill="#D4DBE5"/>
  <rect x="345" y="295" width="80" height="6" rx="3" fill="#D4DBE5"/>
  
  <rect x="345" y="360" width="120" height="6" rx="3" fill="#D4DBE5"/>
  <rect x="345" y="375" width="80" height="6" rx="3" fill="#D4DBE5"/>
  
  <!-- Checkmarks -->
  <path d="M485 200L492 208L505 195" stroke="#F87A09" stroke-width="4" stroke-linecap="round" stroke-linejoin="round"/>
  <path d="M485 280L492 288L505 275" stroke="#F87A09" stroke-width="4" stroke-linecap="round" stroke-linejoin="round"/>
  <path d="M485 360L492 368L505 355" stroke="#F87A09" stroke-width="4" stroke-linecap="round" stroke-linejoin="round"/>
  
  <!-- Large Operational Gear -->
  <g transform="translate(520 420) scale(1.2)">
    <circle cx="50" cy="50" r="40" fill="#1F7A7A"/>
    <path d="M50 15L55 5H45L50 15ZM85 50L95 45V55L85 50ZM50 85L45 95H55L50 85ZM15 50L5 55V45L15 50Z" fill="#3AA8A8"/>
    <circle cx="50" cy="50" r="15" fill="#F5F5F5"/>
  </g>
</svg>