<svg width="800" height="600" viewBox="0 0 800 600" fill="none" xmlns="http://www.w3.org/2000/svg">
  <rect width="800" height="600" fill="transparent"/>
  
  <!-- Search Engine Result List -->
  <rect x="150" y="100" width="500" height="400" rx="20" fill="#F5F5F5"/>
  
  <!-- Result items -->
  <rect x="200" y="150" width="400" height="20" rx="10" fill="#1F7A7A" fill-opacity="0.1"/>
  <rect x="200" y="200" width="400" height="80" rx="12" fill="white" stroke="#D4DBE5" stroke-width="2"/>
  <rect x="200" y="300" width="400" height="80" rx="12" fill="white" stroke="#D4DBE5" stroke-width="2"/>
  <rect x="200" y="400" width="400" height="80" rx="12" fill="white" stroke="#D4DBE5" stroke-width="2"/>
  
  <!-- Text lines in results -->
  <rect x="230" y="220" width="200" height="8" rx="4" fill="#3AA8A8"/>
  <rect x="230" y="240" width="300" height="6" rx="3" fill="#D4DBE5"/>
  <rect x="230" y="255" width="250" height="6" rx="3" fill="#D4DBE5"/>
  
  <rect x="230" y="320" width="200" height="8" rx="4" fill="#3AA8A8"/>
  <rect x="230" y="340" width="300" height="6" rx="3" fill="#D4DBE5"/>
  
  <rect x="230" y="420" width="200" height="8" rx="4" fill="#3AA8A8"/>
  
  <!-- Magnifying Glass -->
  <g transform="translate(480 320) rotate(-15)">
    <circle cx="60" cy="60" r="80" stroke="#F87A09" stroke-width="12" fill="white" fill-opacity="0.2"/>
    <rect x="120" y="120" width="100" height="15" rx="7.5" fill="#F87A09" transform="rotate(45 120 120)"/>
    
    <!-- AI Sparkle in Lens -->
    <path d="M60 40L65 55L80 60L65 65L60 80L55 65L40 60L55 55L60 40Z" fill="#F9953B"/>
  </g>
  
  <!-- Floating World Icon -->
  <circle cx="650" cy="150" r="40" fill="#1F7A7A"/>
  <path d="M650 110C635 125 635 175 650 190M650 110C665 125 665 175 650 190M610 150H690M625 125H675M625 175H675" stroke="white" stroke-width="2"/>
</svg>