<svg width="800" height="600" viewBox="0 0 800 600" fill="none" xmlns="http://www.w3.org/2000/svg">
  <rect width="800" height="600" fill="transparent"/>
  
  <!-- Browser Frame -->
  <rect x="150" y="100" width="500" height="400" rx="12" fill="#FFFFFF" stroke="#D4DBE5" stroke-width="2"/>
  <rect x="150" y="100" width="500" height="40" rx="12" fill="#F5F5F5"/>
  <circle cx="175" cy="120" r="5" fill="#5CBDBD"/>
  <circle cx="195" cy="120" r="5" fill="#B3E3E3"/>
  <circle cx="215" cy="120" r="5" fill="#D4DBE5"/>
  
  <!-- Content Blocks -->
  <rect x="180" y="160" width="300" height="30" rx="4" fill="#3AA8A8" fill-opacity="0.2"/>
  <rect x="180" y="210" width="150" height="150" rx="12" fill="#1F7A7A"/>
  <rect x="350" y="210" width="270" height="150" rx="12" fill="#B3E3E3"/>
  
  <!-- Building Blocks (Construction) -->
  <g transform="translate(480 320)">
    <rect x="0" y="0" width="80" height="80" rx="8" fill="#F87A09"/>
    <path d="M20 40H60M40 20V60" stroke="white" stroke-width="8" stroke-linecap="round"/>
  </g>
  
  <g transform="translate(580 380)">
    <rect x="0" y="0" width="60" height="60" rx="8" fill="#F9953B"/>
    <circle cx="30" cy="30" r="12" stroke="white" stroke-width="6"/>
  </g>
  
  <rect x="180" y="380" width="280" height="100" rx="8" fill="#F5F5F5"/>
  <path d="M200 410H400M200 430H380M200 450H350" stroke="#D4DBE5" stroke-width="6" stroke-linecap="round"/>
</svg>